<svg xmlns="http://www.w3.org/2000/svg" version="1.1" xmlns:xlink="http://www.w3.org/1999/xlink" width="1000" height="1000"><style>
    #light-icon {
      display: inline;
    }
    #dark-icon {
      display: none;
    }

    @media (prefers-color-scheme: dark) {
      #light-icon {
        display: none;
      }
      #dark-icon {
        display: inline;
      }
    }
  </style><g id="light-icon"><svg xmlns="http://www.w3.org/2000/svg" version="1.1" xmlns:xlink="http://www.w3.org/1999/xlink" width="1000" height="1000"><g><g transform="matrix(27.77777777777778,0,0,27.77777777777778,0,0)"><svg xmlns="http://www.w3.org/2000/svg" version="1.1" xmlns:xlink="http://www.w3.org/1999/xlink" width="36" height="36"><svg xmlns="http://www.w3.org/2000/svg" width="36" height="36" viewBox="0 0 24 24" fill="none" stroke="#423314" stroke-width="2" stroke-linecap="round" stroke-linejoin="round" class="lucide lucide-squirrel-icon lucide-squirrel"><path d="M15.236 22a3 3 0 0 0-2.2-5"></path><path d="M16 20a3 3 0 0 1 3-3h1a2 2 0 0 0 2-2v-2a4 4 0 0 0-4-4V4"></path><path d="M18 13h.01"></path><path d="M18 6a4 4 0 0 0-4 4 7 7 0 0 0-7 7c0-5 4-5 4-10.5a4.5 4.5 0 1 0-9 0 2.5 2.5 0 0 0 5 0C7 10 3 11 3 17c0 2.8 2.2 5 5 5h10"></path></svg></svg></g></g></svg></g><g id="dark-icon"><svg xmlns="http://www.w3.org/2000/svg" version="1.1" xmlns:xlink="http://www.w3.org/1999/xlink" width="1000" height="1000"><g><g transform="matrix(27.77777777777778,0,0,27.77777777777778,0,0)"><svg xmlns="http://www.w3.org/2000/svg" version="1.1" xmlns:xlink="http://www.w3.org/1999/xlink" width="36" height="36"><svg xmlns="http://www.w3.org/2000/svg" width="36" height="36" viewBox="0 0 24 24" fill="none" stroke="#ede1c5" stroke-width="2" stroke-linecap="round" stroke-linejoin="round" class="lucide lucide-squirrel-icon lucide-squirrel"><path d="M15.236 22a3 3 0 0 0-2.2-5"></path><path d="M16 20a3 3 0 0 1 3-3h1a2 2 0 0 0 2-2v-2a4 4 0 0 0-4-4V4"></path><path d="M18 13h.01"></path><path d="M18 6a4 4 0 0 0-4 4 7 7 0 0 0-7 7c0-5 4-5 4-10.5a4.5 4.5 0 1 0-9 0 2.5 2.5 0 0 0 5 0C7 10 3 11 3 17c0 2.8 2.2 5 5 5h10"></path></svg></svg></g></g></svg></g></svg>